<svg width="318" height="347" viewBox="0 0 318 347" fill="none" xmlns="http://www.w3.org/2000/svg">
<path d="M68.8209 38.6599C68.8209 17.8609 85.6603 1 106.433 1H270.985C296.951 1 318 22.0761 318 48.0748H78.2239C73.0307 48.0748 68.8209 43.8596 68.8209 38.6599Z" fill="#D53923"/>
<path d="M3 299.925H221.619V323.463C221.619 336.462 211.095 347 198.112 347H50.0149C24.0493 347 3 325.924 3 299.925Z" fill="#D53923"/>
<path d="M106 1H270.889C296.908 1 318 22.0761 318 48.0748H153.111C127.092 48.0748 106 26.9987 106 1Z" fill="#FEE01A"/>
<path d="M0 299.167L284.264 15.1224L317.577 48.4094L33.3126 332.454L0 299.167Z" fill="#FEE01A"/>
<path d="M0 299.925H164.889C190.908 299.925 212 321.001 212 347H47.1111C21.0924 347 0 325.924 0 299.925Z" fill="#FEE01A"/>
<path d="M106.5 212L107 165L210.5 135L211 182L106.5 212Z" fill="#D53923"/>
<path d="M106.907 47.1253C74.4121 47.1253 48.0698 73.4987 48.0698 106.032C48.0698 138.565 74.4121 164.939 106.907 164.939V212.064C48.4162 212.064 1 164.592 1 106.032C1 47.4721 48.4162 0 106.907 0V47.1253Z" fill="#ED3F27"/>
<path d="M211.444 299.876C243.938 299.681 270.123 273.151 269.929 240.618C269.735 208.086 243.236 181.87 210.742 182.064L210.461 134.94C268.951 134.59 316.649 181.778 316.998 240.337C317.347 298.896 270.215 346.65 211.725 347L211.444 299.876Z" fill="#ED3F27"/>
</svg>
